<svg width="336" height="96" viewBox="0 0 336 96" fill="none" xmlns="http://www.w3.org/2000/svg">
<path d="M86.4 48.0038C82.4437 43.3426 78.06 39.8889 73.32 37.5072C74.9363 32.6172 75.6488 27.1382 75.1499 20.8493C68.8012 20.328 63.2133 21.108 58.4815 22.6755C56.1077 17.958 52.7028 13.6192 47.9964 9.59933C43.2188 13.6531 39.8101 18.0781 37.4997 22.6793C32.6285 21.0668 27.1682 20.3506 20.8418 20.8455C20.3805 26.4781 20.9055 32.1927 22.668 37.514C18.0893 39.8165 13.7093 43.1765 9.59184 47.9991C13.6231 52.7466 18.0743 56.1853 22.668 58.4958C21.0517 63.3782 20.3392 68.8609 20.8342 75.1566C26.3804 75.6103 32.1104 75.1153 37.5027 73.3304C39.7715 77.8454 43.1577 82.2779 47.9878 86.4065C52.2816 82.7653 55.9566 78.3591 58.4844 73.3304C64.0344 75.1642 69.5734 75.5991 75.1424 75.1603C75.6636 68.7854 74.8724 63.1901 73.3162 58.4918C77.8837 56.1931 82.2937 52.8068 86.4 48.0029V48.0038ZM72.6826 23.3213C72.8551 27.9338 72.2588 32.6437 71.1788 36.5405C67.7476 35.1042 63.9713 34.5192 61.3235 34.6767C61.3235 33.6755 61.5635 29.8505 59.4597 24.8252C63.3898 23.7302 68.1635 23.1527 72.6818 23.3215L72.6826 23.3213ZM48 56.329C49.59 57.4914 50.865 58.189 51.9225 58.729C51.0937 60.349 49.9763 62.4114 48 64.5452C46.2637 62.6665 45.1538 60.829 44.0813 58.7327C45.0712 58.219 46.3613 57.529 48 56.329C46.4775 57.0752 45.4088 57.5589 43.8 58.1402C43.0725 56.5877 42.66 55.4927 42.1125 53.8914C42.3863 55.6539 42.7725 57.0864 43.1813 58.3614C40.9688 59.0739 38.8163 59.6027 36.3037 59.6964C36.4087 57.0451 36.9562 54.9339 37.6425 52.8226C38.94 53.2426 40.3649 53.6213 42.1163 53.8913C40.5112 53.3401 39.4163 52.9276 37.8675 52.2001C38.4487 50.5951 38.9288 49.5301 39.6787 48.0038C38.5125 49.5976 37.8225 50.8614 37.2787 51.9263C35.19 50.8575 33.3037 49.7063 31.4625 48.0038C33.2963 46.3089 35.19 45.1501 37.275 44.0851C37.7325 44.9739 38.4374 46.3164 39.6787 48.0076C38.9287 46.4738 38.4488 45.4126 37.8675 43.8076C39.405 43.0876 40.5 42.6713 42.1163 42.1201C40.3088 42.4014 38.865 42.7988 37.6463 43.1889C36.9788 41.1301 36.4125 39.0076 36.3076 36.3113C38.8164 36.4088 40.9426 36.9226 43.1851 37.6501C42.7651 38.9551 42.3864 40.3763 42.1164 42.1238C42.6676 40.5113 43.0838 39.4201 43.8076 37.8751C45.4051 38.4526 46.4814 38.9401 48.0038 39.6863C49.5263 38.9401 50.5951 38.4564 52.2038 37.8751C52.9276 39.4201 53.3401 40.5076 53.8913 42.1238C53.6176 40.3538 53.2276 38.9214 52.8188 37.6539C55.0463 36.9339 57.1951 36.4126 59.7001 36.3152C59.5988 38.8914 59.0476 41.0739 58.3651 43.1927C57.0601 42.7727 55.6389 42.394 53.8913 42.1239C55.5038 42.6752 56.5913 43.0877 58.1438 43.8152C57.5588 45.4277 57.0751 46.4927 56.3326 48.0152C57.3901 46.5677 58.1289 45.2814 58.7364 44.0965C60.5326 45.0152 62.5089 46.1252 64.5451 48.0189C62.5989 49.8189 60.7238 50.9214 58.7326 51.9414C58.2339 50.9664 57.5364 49.6651 56.3289 48.0189C57.0751 49.5451 57.5588 50.6139 58.1364 52.2189C56.5913 52.9427 55.4926 53.3589 53.8876 53.9064V53.9027V53.9064C53.3401 55.5077 52.9238 56.6027 52.1964 58.1552C50.5913 57.5589 49.5151 57.0714 48.0001 56.329H48ZM36.9379 52.5865C35.8879 54.7878 35.108 57.2665 34.8155 59.704C31.7104 59.644 28.3429 58.6653 25.508 57.3153C26.7755 53.7415 28.6205 50.8878 30.398 49.0465C32.3442 50.584 34.6767 51.784 36.938 52.5865H36.9379ZM25.5082 38.6819C28.3094 37.3506 31.7069 36.3494 34.8119 36.2931C34.9057 37.0693 35.0444 37.8156 35.2132 38.5656C35.5732 40.1031 36.1956 41.8656 36.9344 43.4181C34.6769 44.2206 32.352 45.4168 30.3982 46.9506C28.2494 44.7157 26.5507 41.6219 25.5081 38.6819H25.5082ZM44.0822 37.2681C45.1473 35.183 46.2985 33.2968 48.0047 31.4556C49.7522 33.3456 50.8922 35.2468 51.9234 37.2681C50.9147 37.7856 49.6322 38.4756 48.001 39.6718C46.5684 38.6256 45.2897 37.8868 44.0822 37.2681ZM53.8886 53.8876C55.6548 53.6138 57.0911 53.2238 58.3586 52.8151C58.9098 54.5175 59.5848 56.7751 59.6936 59.6964C57.1474 59.5951 55.0698 59.0889 52.8198 58.3576C53.2398 57.0564 53.6185 55.6389 53.8885 53.8877L53.8886 53.8876ZM59.0674 52.5826C61.3399 51.7763 63.6536 50.5801 65.5999 49.0463C67.3812 50.9063 69.2412 53.7863 70.4937 57.3188C67.0961 58.9351 63.7662 59.6626 61.1899 59.7076C60.8974 57.2364 60.0875 54.7238 59.0675 52.5826H59.0674ZM59.0636 43.4175C60.0948 41.2501 60.8898 38.7675 61.1861 36.3C64.3285 36.3675 67.6811 37.3501 70.4936 38.6888C69.2598 42.1688 67.3998 45.0938 65.6035 46.9575C63.6648 45.4238 61.336 44.22 59.0635 43.4175H59.0636ZM59.7086 34.8113C57.2561 35.1038 54.7548 35.8988 52.5798 36.9375C51.7773 34.68 50.5811 32.3551 49.0473 30.4013C51.2823 28.2563 54.3236 26.5725 57.3198 25.5075C58.6623 28.3237 59.6524 31.7925 59.7086 34.8112V34.8113ZM48.0014 13.0952C50.9939 15.8739 54.0577 19.5677 56.2814 23.5054C53.3639 24.7017 50.1051 26.7792 47.9977 29.1566C46.2014 27.0041 42.5789 24.6829 39.7177 23.5129C41.9639 19.5342 44.9489 15.9454 48.0014 13.095V13.0952ZM38.6864 25.508C41.6827 26.573 44.7427 28.2642 46.9552 30.398C45.4251 32.3442 44.2177 34.6767 43.4189 36.938C41.229 35.8956 38.7502 35.1081 36.3014 34.8156C36.3614 31.6656 37.3439 28.3318 38.6864 25.5081V25.508ZM23.3188 23.318C27.9612 23.1605 32.5212 23.7043 36.538 24.8218C35.308 27.7543 34.4942 31.5868 34.6742 34.6771C31.678 34.5009 27.8492 35.2734 24.8227 36.5409C23.6077 32.1684 23.1765 27.5259 23.3189 23.3188L23.3188 23.318ZM13.0967 48.0006C15.9842 44.8918 19.6629 41.8881 23.5069 39.7206C24.7032 42.6419 26.8069 45.9118 29.1581 48.0043C26.7432 50.2019 24.7219 53.3368 23.5107 56.2843C19.6331 54.0905 15.9394 51.0756 13.0966 48.0006H13.0967ZM23.3188 72.6831C23.1538 68.3706 23.6338 63.7431 24.8225 59.4639C28.2313 60.8927 31.9925 61.4815 34.6779 61.3277C34.4679 64.2452 35.2854 68.1789 36.5416 71.1792C32.1579 72.3979 27.3841 72.833 23.3195 72.683L23.3188 72.6831ZM36.2941 61.1891C38.7354 60.8966 41.2366 60.1053 43.4191 59.0629C44.2291 61.3503 45.4292 63.6604 46.9516 65.5991C44.6791 67.7778 41.6341 69.4429 38.6791 70.4929C37.3404 67.6766 36.3504 64.2979 36.2941 61.1892V61.1891ZM48.0013 82.9091C44.9525 80.0928 41.9226 76.3991 39.7213 72.4988C42.6576 71.2951 45.9314 69.1801 48.0051 66.8476C50.1651 69.2476 53.3976 71.3101 56.2851 72.4913C54.0426 76.4588 50.9451 80.1863 48.0013 82.9093V82.9091ZM57.3163 70.4963C53.9 69.2813 50.975 67.4663 49.0475 65.6062C50.5776 63.66 51.7851 61.3238 52.5838 59.0625C54.7776 60.1087 57.26 60.8924 59.7051 61.1849C59.6413 64.2937 58.6738 67.6387 57.3163 70.4962V70.4963ZM72.6801 72.6825C68.5964 72.8362 63.7777 72.3787 59.4609 71.1787C60.9047 67.7363 61.4785 63.99 61.3247 61.3272C62.4722 61.3272 64.5459 61.4622 68.0785 60.5134C69.3797 60.146 70.471 59.756 71.176 59.4634C72.2822 63.4309 72.8523 68.0884 72.6797 72.6826L72.6801 72.6825ZM72.4964 56.2799C71.3639 53.5162 69.2564 50.1374 66.8451 47.9962C67.2839 47.6437 70.5352 44.4937 72.4926 39.7162C76.4001 41.9212 79.9364 44.8311 82.9067 47.9962C80.0567 51.0711 76.3929 54.0824 72.4965 56.2799H72.4964Z" fill="#E33D43"/>
<path d="M99.776 42V24.96H103.088V39.096H111.776V42H99.776ZM118.64 24.96H121.568L128.048 42H124.64L123.056 37.752H117.104L115.544 42H112.136L118.64 24.96ZM122.456 35.424L120.104 28.728L117.656 35.424H122.456ZM134.932 42V24.96H142.468C143.252 24.96 143.972 25.128 144.628 25.464C145.3 25.784 145.876 26.216 146.356 26.76C146.836 27.288 147.212 27.896 147.484 28.584C147.756 29.256 147.892 29.936 147.892 30.624C147.892 31.728 147.612 32.736 147.052 33.648C146.508 34.544 145.764 35.192 144.82 35.592L148.708 42H144.988L141.508 36.288H138.244V42H134.932ZM138.244 33.384H142.396C142.7 33.384 142.98 33.312 143.236 33.168C143.508 33.024 143.74 32.832 143.932 32.592C144.124 32.336 144.276 32.04 144.388 31.704C144.5 31.368 144.556 31.008 144.556 30.624C144.556 30.224 144.492 29.856 144.364 29.52C144.236 29.184 144.06 28.896 143.836 28.656C143.628 28.4 143.38 28.208 143.092 28.08C142.82 27.936 142.54 27.864 142.252 27.864H138.244V33.384ZM150.893 42V24.96H154.205V42H150.893ZM157.76 42V24.96H164.984C165.768 24.96 166.488 25.128 167.144 25.464C167.816 25.784 168.392 26.216 168.872 26.76C169.352 27.288 169.728 27.896 170 28.584C170.272 29.256 170.408 29.936 170.408 30.624C170.408 31.344 170.28 32.048 170.024 32.736C169.768 33.408 169.408 34.008 168.944 34.536C168.48 35.064 167.92 35.488 167.264 35.808C166.608 36.128 165.888 36.288 165.104 36.288H161.072V42H157.76ZM161.072 33.384H164.912C165.52 33.384 166.024 33.136 166.424 32.64C166.84 32.144 167.048 31.472 167.048 30.624C167.048 30.192 166.984 29.808 166.856 29.472C166.728 29.12 166.56 28.824 166.352 28.584C166.144 28.344 165.896 28.168 165.608 28.056C165.336 27.928 165.056 27.864 164.768 27.864H161.072V33.384ZM179.986 42.12C178.738 42.12 177.602 41.88 176.578 41.4C175.57 40.904 174.698 40.256 173.962 39.456C173.242 38.64 172.682 37.712 172.282 36.672C171.882 35.632 171.682 34.568 171.682 33.48C171.682 32.344 171.89 31.256 172.306 30.216C172.738 29.176 173.322 28.256 174.058 27.456C174.81 26.656 175.698 26.024 176.722 25.56C177.746 25.08 178.858 24.84 180.058 24.84C181.29 24.84 182.41 25.096 183.418 25.608C184.442 26.104 185.314 26.76 186.034 27.576C186.754 28.392 187.314 29.32 187.714 30.36C188.114 31.4 188.314 32.456 188.314 33.528C188.314 34.664 188.106 35.752 187.69 36.792C187.274 37.816 186.698 38.728 185.962 39.528C185.226 40.312 184.346 40.944 183.322 41.424C182.298 41.888 181.186 42.12 179.986 42.12ZM175.042 33.48C175.042 34.216 175.154 34.928 175.378 35.616C175.602 36.304 175.922 36.912 176.338 37.44C176.77 37.968 177.29 38.392 177.898 38.712C178.522 39.032 179.226 39.192 180.01 39.192C180.81 39.192 181.514 39.032 182.122 38.712C182.746 38.376 183.266 37.936 183.682 37.392C184.114 36.848 184.434 36.24 184.642 35.568C184.866 34.88 184.978 34.184 184.978 33.48C184.978 32.744 184.858 32.032 184.618 31.344C184.394 30.656 184.066 30.048 183.634 29.52C183.218 28.992 182.698 28.576 182.074 28.272C181.466 27.952 180.778 27.792 180.01 27.792C179.21 27.792 178.498 27.96 177.874 28.296C177.25 28.616 176.73 29.048 176.314 29.592C175.898 30.12 175.578 30.728 175.354 31.416C175.146 32.088 175.042 32.776 175.042 33.48ZM201.006 29.424C200.894 29.312 200.686 29.16 200.382 28.968C200.094 28.776 199.734 28.592 199.302 28.416C198.886 28.224 198.43 28.064 197.934 27.936C197.438 27.808 196.934 27.744 196.422 27.744C195.51 27.744 194.83 27.912 194.382 28.248C193.934 28.584 193.71 29.056 193.71 29.664C193.71 30.016 193.79 30.312 193.95 30.552C194.126 30.776 194.374 30.976 194.694 31.152C195.014 31.328 195.414 31.488 195.894 31.632C196.39 31.776 196.958 31.928 197.598 32.088C198.43 32.312 199.182 32.552 199.854 32.808C200.542 33.064 201.118 33.384 201.582 33.768C202.062 34.152 202.43 34.616 202.686 35.16C202.942 35.688 203.07 36.344 203.07 37.128C203.07 38.04 202.894 38.824 202.542 39.48C202.206 40.12 201.742 40.64 201.15 41.04C200.574 41.44 199.902 41.736 199.134 41.928C198.382 42.104 197.59 42.192 196.758 42.192C195.478 42.192 194.214 42 192.966 41.616C191.718 41.232 190.598 40.688 189.606 39.984L191.07 37.128C191.214 37.272 191.47 37.464 191.838 37.704C192.222 37.928 192.67 38.16 193.182 38.4C193.694 38.624 194.262 38.816 194.886 38.976C195.51 39.136 196.15 39.216 196.806 39.216C198.63 39.216 199.542 38.632 199.542 37.464C199.542 37.096 199.438 36.784 199.23 36.528C199.022 36.272 198.726 36.048 198.342 35.856C197.958 35.664 197.494 35.488 196.95 35.328C196.406 35.168 195.798 34.992 195.126 34.8C194.31 34.576 193.598 34.336 192.99 34.08C192.398 33.808 191.902 33.496 191.502 33.144C191.102 32.776 190.798 32.36 190.59 31.896C190.398 31.416 190.302 30.848 190.302 30.192C190.302 29.328 190.462 28.56 190.782 27.888C191.102 27.216 191.542 26.656 192.102 26.208C192.678 25.76 193.342 25.424 194.094 25.2C194.846 24.96 195.654 24.84 196.518 24.84C197.718 24.84 198.822 25.032 199.83 25.416C200.838 25.784 201.718 26.224 202.47 26.736L201.006 29.424ZM218.2 27.864H212.752V42H209.464V27.864H204.016V24.96H218.2V27.864ZM232.147 39.096V42H220.315V24.96H231.931V27.864H223.627V31.968H230.803V34.656H223.627V39.096H232.147ZM100.136 70V52.96H107.192C107.928 52.96 108.6 53.12 109.208 53.44C109.832 53.744 110.368 54.152 110.816 54.664C111.264 55.16 111.616 55.728 111.872 56.368C112.128 57.008 112.256 57.656 112.256 58.312C112.256 59.016 112.136 59.696 111.896 60.352C111.656 60.992 111.32 61.56 110.888 62.056C110.456 62.552 109.936 62.952 109.328 63.256C108.736 63.56 108.072 63.712 107.336 63.712H101.816V70H100.136ZM101.816 62.224H107.264C107.76 62.224 108.208 62.12 108.608 61.912C109.024 61.688 109.376 61.4 109.664 61.048C109.952 60.68 110.176 60.264 110.336 59.8C110.496 59.32 110.576 58.824 110.576 58.312C110.576 57.784 110.48 57.288 110.288 56.824C110.112 56.344 109.864 55.928 109.544 55.576C109.24 55.224 108.872 54.952 108.44 54.76C108.024 54.552 107.584 54.448 107.12 54.448H101.816V62.224ZM128.506 52.96V70H126.85V62.032H116.746V70H115.066V52.96H116.746V60.544H126.85V52.96H128.506ZM132.784 70V52.96H134.464V70H132.784ZM138.738 70V52.96H140.418V68.512H150.258V70H138.738ZM158.01 52.96H159.426L166.506 70H164.73L162.522 64.672H154.866L152.682 70H150.882L158.01 52.96ZM162.138 63.352L158.706 54.928L155.226 63.352H162.138ZM170.629 56.08V70H168.949V52.96H170.245L181.525 67.144V52.984H183.205V70H181.741L170.629 56.08ZM199.584 54.448H193.512V70H191.832V54.448H185.76V52.96H199.584V54.448ZM215.576 52.96V70H213.92V62.032H203.816V70H202.136V52.96H203.816V60.544H213.92V52.96H215.576ZM219.855 70V52.96H227.055C227.791 52.96 228.463 53.12 229.071 53.44C229.695 53.744 230.231 54.152 230.679 54.664C231.127 55.16 231.471 55.728 231.711 56.368C231.967 57.008 232.095 57.656 232.095 58.312C232.095 58.936 231.999 59.536 231.807 60.112C231.631 60.672 231.375 61.184 231.039 61.648C230.719 62.096 230.327 62.48 229.863 62.8C229.399 63.104 228.879 63.312 228.303 63.424L232.479 70H230.583L226.575 63.712H221.535V70H219.855ZM221.535 62.224H227.103C227.599 62.224 228.047 62.12 228.447 61.912C228.863 61.688 229.215 61.392 229.503 61.024C229.791 60.656 230.015 60.24 230.175 59.776C230.335 59.312 230.415 58.824 230.415 58.312C230.415 57.8 230.319 57.312 230.127 56.848C229.951 56.368 229.703 55.952 229.383 55.6C229.079 55.248 228.711 54.968 228.279 54.76C227.863 54.552 227.423 54.448 226.959 54.448H221.535V62.224ZM242.398 70.12C241.214 70.12 240.126 69.88 239.134 69.4C238.158 68.904 237.318 68.256 236.614 67.456C235.91 66.64 235.366 65.712 234.982 64.672C234.598 63.632 234.406 62.568 234.406 61.48C234.406 60.344 234.606 59.256 235.006 58.216C235.422 57.176 235.99 56.256 236.71 55.456C237.43 54.656 238.278 54.024 239.254 53.56C240.23 53.08 241.286 52.84 242.422 52.84C243.606 52.84 244.686 53.096 245.662 53.608C246.654 54.104 247.494 54.76 248.182 55.576C248.886 56.392 249.43 57.32 249.814 58.36C250.198 59.384 250.39 60.432 250.39 61.504C250.39 62.64 250.182 63.728 249.766 64.768C249.366 65.808 248.806 66.728 248.086 67.528C247.382 68.312 246.542 68.944 245.566 69.424C244.59 69.888 243.534 70.12 242.398 70.12ZM236.086 61.48C236.086 62.408 236.238 63.304 236.542 64.168C236.846 65.016 237.278 65.776 237.838 66.448C238.398 67.104 239.062 67.632 239.83 68.032C240.598 68.416 241.454 68.608 242.398 68.608C243.358 68.608 244.23 68.4 245.014 67.984C245.798 67.568 246.462 67.024 247.006 66.352C247.55 65.68 247.966 64.92 248.254 64.072C248.558 63.224 248.71 62.36 248.71 61.48C248.71 60.552 248.55 59.664 248.23 58.816C247.926 57.952 247.494 57.192 246.934 56.536C246.374 55.88 245.71 55.36 244.942 54.976C244.174 54.576 243.326 54.376 242.398 54.376C241.438 54.376 240.566 54.584 239.782 55C238.998 55.4 238.334 55.936 237.79 56.608C237.246 57.28 236.822 58.04 236.518 58.888C236.23 59.736 236.086 60.6 236.086 61.48ZM253.558 70V52.96H260.614C261.35 52.96 262.022 53.12 262.63 53.44C263.254 53.744 263.79 54.152 264.238 54.664C264.686 55.16 265.038 55.728 265.294 56.368C265.55 57.008 265.678 57.656 265.678 58.312C265.678 59.016 265.558 59.696 265.318 60.352C265.078 60.992 264.742 61.56 264.31 62.056C263.878 62.552 263.358 62.952 262.75 63.256C262.158 63.56 261.494 63.712 260.758 63.712H255.238V70H253.558ZM255.238 62.224H260.686C261.182 62.224 261.63 62.12 262.03 61.912C262.446 61.688 262.798 61.4 263.086 61.048C263.374 60.68 263.598 60.264 263.758 59.8C263.918 59.32 263.998 58.824 263.998 58.312C263.998 57.784 263.902 57.288 263.71 56.824C263.534 56.344 263.286 55.928 262.966 55.576C262.662 55.224 262.294 54.952 261.862 54.76C261.446 54.552 261.006 54.448 260.542 54.448H255.238V62.224ZM268.488 70V52.96H270.168V70H268.488ZM285.961 68.488C285.305 69 284.585 69.4 283.801 69.688C283.033 69.976 282.201 70.12 281.305 70.12C280.121 70.12 279.033 69.872 278.041 69.376C277.065 68.88 276.225 68.232 275.521 67.432C274.817 66.632 274.273 65.712 273.889 64.672C273.505 63.632 273.313 62.568 273.313 61.48C273.313 60.344 273.513 59.256 273.913 58.216C274.329 57.176 274.897 56.256 275.617 55.456C276.337 54.656 277.185 54.024 278.161 53.56C279.137 53.08 280.193 52.84 281.329 52.84C282.513 52.84 283.593 53.096 284.569 53.608C285.561 54.104 286.401 54.76 287.089 55.576C287.793 56.392 288.337 57.32 288.721 58.36C289.105 59.384 289.297 60.432 289.297 61.504C289.297 62.672 289.081 63.784 288.649 64.84C288.233 65.896 287.649 66.824 286.897 67.624L288.913 70H287.257L285.961 68.488ZM281.305 68.608C282.025 68.608 282.689 68.496 283.297 68.272C283.905 68.032 284.465 67.712 284.977 67.312L282.841 64.768H284.497L285.865 66.4C286.425 65.728 286.857 64.968 287.161 64.12C287.465 63.256 287.617 62.376 287.617 61.48C287.617 60.552 287.457 59.664 287.137 58.816C286.833 57.952 286.401 57.192 285.841 56.536C285.281 55.88 284.617 55.352 283.849 54.952C283.081 54.552 282.233 54.352 281.305 54.352C280.345 54.352 279.473 54.56 278.689 54.976C277.905 55.376 277.241 55.912 276.697 56.584C276.153 57.256 275.729 58.024 275.425 58.888C275.137 59.736 274.993 60.6 274.993 61.48C274.993 62.408 275.145 63.304 275.449 64.168C275.753 65.016 276.185 65.776 276.745 66.448C277.305 67.104 277.969 67.632 278.737 68.032C279.505 68.416 280.361 68.608 281.305 68.608ZM299.329 68.608C300.401 68.608 301.289 68.408 301.993 68.008C302.713 67.592 303.281 67.056 303.697 66.4C304.129 65.728 304.425 64.968 304.585 64.12C304.761 63.272 304.849 62.416 304.849 61.552V52.96H306.529V61.552C306.529 62.704 306.401 63.8 306.145 64.84C305.889 65.864 305.473 66.768 304.897 67.552C304.337 68.336 303.601 68.96 302.689 69.424C301.777 69.888 300.665 70.12 299.353 70.12C298.009 70.12 296.873 69.88 295.945 69.4C295.033 68.904 294.297 68.256 293.737 67.456C293.177 66.656 292.777 65.744 292.537 64.72C292.297 63.696 292.177 62.64 292.177 61.552V52.96H293.833V61.552C293.833 62.448 293.921 63.32 294.097 64.168C294.273 65.016 294.569 65.768 294.985 66.424C295.417 67.08 295.985 67.608 296.689 68.008C297.393 68.408 298.273 68.608 299.329 68.608ZM321.982 68.512V70H310.534V52.96H321.766V54.448H312.214V60.592H320.542V62.008H312.214V68.512H321.982Z" fill="#2E3738"/>
</svg>
