<svg width="284" height="96" viewBox="0 0 284 96" fill="none" xmlns="http://www.w3.org/2000/svg">
<path d="M86.4 48.0038C82.4437 43.3426 78.06 39.8889 73.32 37.5072C74.9363 32.6171 75.6488 27.1382 75.1499 20.8493C68.8012 20.328 63.2133 21.108 58.4815 22.6755C56.1077 17.958 52.7028 13.6192 47.9964 9.59933C43.2188 13.6531 39.8101 18.078 37.4997 22.6793C32.6285 21.0668 27.1682 20.3506 20.8418 20.8455C20.3805 26.478 20.9055 32.1927 22.668 37.514C18.0893 39.8165 13.7093 43.1765 9.59184 47.9991C13.6231 52.7466 18.0743 56.1853 22.668 58.4958C21.0517 63.3782 20.3392 68.8609 20.8342 75.1566C26.3804 75.6103 32.1104 75.1153 37.5027 73.3304C39.7715 77.8453 43.1577 82.2779 47.9878 86.4065C52.2816 82.7652 55.9566 78.359 58.4844 73.3304C64.0344 75.1642 69.5734 75.5991 75.1424 75.1603C75.6636 68.7853 74.8724 63.1901 73.3162 58.4918C77.8837 56.1931 82.2937 52.8068 86.4 48.0029V48.0038ZM72.6826 23.3213C72.8551 27.9338 72.2588 32.6437 71.1788 36.5405C67.7476 35.1042 63.9713 34.5192 61.3235 34.6767C61.3235 33.6755 61.5635 29.8505 59.4597 24.8252C63.3898 23.7302 68.1635 23.1527 72.6818 23.3215L72.6826 23.3213ZM48 56.329C49.59 57.4914 50.865 58.189 51.9225 58.729C51.0937 60.349 49.9763 62.4114 48 64.5452C46.2637 62.6665 45.1538 60.829 44.0813 58.7327C45.0712 58.219 46.3613 57.529 48 56.329C46.4775 57.0752 45.4088 57.5589 43.8 58.1402C43.0725 56.5877 42.66 55.4927 42.1125 53.8914C42.3863 55.6539 42.7725 57.0864 43.1813 58.3614C40.9688 59.0739 38.8163 59.6027 36.3037 59.6964C36.4087 57.0451 36.9562 54.9339 37.6425 52.8226C38.94 53.2426 40.3649 53.6213 42.1163 53.8913C40.5112 53.3401 39.4163 52.9276 37.8675 52.2001C38.4487 50.5951 38.9288 49.5301 39.6787 48.0038C38.5125 49.5976 37.8225 50.8614 37.2787 51.9263C35.19 50.8575 33.3037 49.7063 31.4625 48.0038C33.2963 46.3089 35.19 45.15 37.275 44.0851C37.7325 44.9739 38.4374 46.3163 39.6787 48.0076C38.9287 46.4738 38.4488 45.4126 37.8675 43.8076C39.405 43.0876 40.5 42.6713 42.1163 42.1201C40.3088 42.4013 38.865 42.7988 37.6463 43.1889C36.9788 41.1301 36.4125 39.0076 36.3076 36.3113C38.8164 36.4088 40.9426 36.9226 43.1851 37.65C42.7651 38.9551 42.3864 40.3763 42.1164 42.1238C42.6676 40.5113 43.0838 39.4201 43.8076 37.8751C45.4051 38.4526 46.4814 38.9401 48.0038 39.6863C49.5263 38.9401 50.5951 38.4564 52.2038 37.8751C52.9276 39.4201 53.3401 40.5076 53.8913 42.1238C53.6176 40.3538 53.2276 38.9214 52.8188 37.6539C55.0463 36.9339 57.1951 36.4126 59.7001 36.3152C59.5988 38.8914 59.0476 41.0739 58.3651 43.1927C57.0601 42.7727 55.6389 42.394 53.8913 42.1239C55.5038 42.6752 56.5913 43.0877 58.1438 43.8152C57.5588 45.4277 57.0751 46.4927 56.3326 48.0152C57.3901 46.5677 58.1289 45.2814 58.7364 44.0964C60.5326 45.0152 62.5089 46.1252 64.5451 48.0189C62.5989 49.8189 60.7238 50.9214 58.7326 51.9414C58.2339 50.9664 57.5364 49.6651 56.3289 48.0189C57.0751 49.5451 57.5588 50.6139 58.1364 52.2189C56.5913 52.9427 55.4926 53.3589 53.8876 53.9064V53.9026V53.9064C53.3401 55.5077 52.9238 56.6027 52.1964 58.1552C50.5913 57.5589 49.5151 57.0714 48.0001 56.329H48ZM36.9379 52.5865C35.8879 54.7878 35.108 57.2665 34.8155 59.704C31.7104 59.644 28.3429 58.6653 25.508 57.3153C26.7755 53.7415 28.6205 50.8878 30.398 49.0465C32.3442 50.584 34.6767 51.784 36.938 52.5865H36.9379ZM25.5082 38.6819C28.3094 37.3506 31.7069 36.3493 34.8119 36.2931C34.9057 37.0693 35.0444 37.8156 35.2132 38.5656C35.5732 40.1031 36.1956 41.8656 36.9344 43.4181C34.6769 44.2206 32.352 45.4168 30.3982 46.9506C28.2494 44.7156 26.5507 41.6219 25.5081 38.6819H25.5082ZM44.0822 37.2681C45.1473 35.183 46.2985 33.2968 48.0047 31.4556C49.7522 33.3456 50.8922 35.2468 51.9234 37.2681C50.9147 37.7856 49.6322 38.4755 48.001 39.6718C46.5684 38.6256 45.2897 37.8868 44.0822 37.2681ZM53.8886 53.8876C55.6548 53.6138 57.0911 53.2238 58.3586 52.8151C58.9098 54.5175 59.5848 56.7751 59.6936 59.6964C57.1474 59.5951 55.0698 59.0889 52.8198 58.3576C53.2398 57.0564 53.6185 55.6389 53.8885 53.8877L53.8886 53.8876ZM59.0674 52.5826C61.3399 51.7763 63.6536 50.5801 65.5999 49.0463C67.3811 50.9063 69.2412 53.7863 70.4937 57.3188C67.0961 58.9351 63.7662 59.6626 61.1899 59.7076C60.8974 57.2363 60.0875 54.7238 59.0675 52.5826H59.0674ZM59.0636 43.4175C60.0948 41.25 60.8898 38.7675 61.1861 36.3C64.3285 36.3675 67.681 37.35 70.4936 38.6888C69.2598 42.1688 67.3998 45.0938 65.6035 46.9575C63.6648 45.4237 61.336 44.22 59.0635 43.4175H59.0636ZM59.7086 34.8113C57.2561 35.1038 54.7548 35.8988 52.5798 36.9375C51.7773 34.68 50.5811 32.3551 49.0473 30.4013C51.2823 28.2563 54.3236 26.5725 57.3198 25.5075C58.6623 28.3237 59.6524 31.7925 59.7086 34.8112V34.8113ZM48.0014 13.0952C50.9939 15.8739 54.0577 19.5677 56.2814 23.5054C53.3639 24.7017 50.1051 26.7792 47.9977 29.1566C46.2014 27.0041 42.5789 24.6828 39.7177 23.5129C41.9639 19.5342 44.9489 15.9454 48.0014 13.095V13.0952ZM38.6864 25.508C41.6827 26.573 44.7427 28.2642 46.9552 30.398C45.4251 32.3442 44.2177 34.6767 43.4189 36.938C41.229 35.8956 38.7502 35.1081 36.3014 34.8156C36.3614 31.6656 37.3439 28.3318 38.6864 25.5081V25.508ZM23.3188 23.318C27.9612 23.1605 32.5212 23.7043 36.538 24.8218C35.308 27.7543 34.4942 31.5868 34.6742 34.6771C31.678 34.5009 27.8492 35.2734 24.8227 36.5409C23.6077 32.1684 23.1765 27.5259 23.3189 23.3188L23.3188 23.318ZM13.0967 48.0006C15.9842 44.8918 19.6629 41.8881 23.5069 39.7206C24.7032 42.6419 26.8069 45.9118 29.1581 48.0043C26.7432 50.2019 24.7219 53.3368 23.5107 56.2843C19.6331 54.0905 15.9394 51.0755 13.0966 48.0006H13.0967ZM23.3188 72.6831C23.1538 68.3706 23.6338 63.7431 24.8225 59.4639C28.2313 60.8927 31.9925 61.4815 34.6779 61.3277C34.4679 64.2452 35.2854 68.1789 36.5416 71.1792C32.1579 72.3979 27.3841 72.833 23.3195 72.6829L23.3188 72.6831ZM36.2941 61.1891C38.7354 60.8966 41.2366 60.1053 43.4191 59.0628C44.2291 61.3503 45.4292 63.6604 46.9516 65.5991C44.6791 67.7778 41.6341 69.4428 38.6791 70.4929C37.3404 67.6766 36.3504 64.2979 36.2941 61.1892V61.1891ZM48.0013 82.9091C44.9525 80.0928 41.9226 76.3991 39.7213 72.4988C42.6576 71.2951 45.9314 69.1801 48.0051 66.8476C50.1651 69.2476 53.3976 71.3101 56.2851 72.4913C54.0426 76.4588 50.9451 80.1863 48.0013 82.9092V82.9091ZM57.3163 70.4963C53.9 69.2813 50.975 67.4663 49.0475 65.6062C50.5776 63.66 51.7851 61.3237 52.5838 59.0625C54.7776 60.1087 57.26 60.8924 59.7051 61.1849C59.6413 64.2937 58.6738 67.6387 57.3163 70.4962V70.4963ZM72.6801 72.6825C68.5964 72.8362 63.7777 72.3787 59.4609 71.1787C60.9047 67.7363 61.4785 63.99 61.3247 61.3272C62.4722 61.3272 64.5459 61.4622 68.0785 60.5134C69.3797 60.1459 70.471 59.7559 71.176 59.4634C72.2822 63.4309 72.8523 68.0884 72.6797 72.6826L72.6801 72.6825ZM72.4964 56.2799C71.3639 53.5162 69.2564 50.1374 66.8451 47.9962C67.2839 47.6437 70.5352 44.4937 72.4926 39.7162C76.4001 41.9212 79.9364 44.8311 82.9067 47.9962C80.0567 51.0711 76.3929 54.0824 72.4965 56.2799H72.4964Z" fill="#E33D43"/>
<path d="M98.04 42V24.96H105.144C105.896 24.96 106.584 25.12 107.208 25.44C107.848 25.744 108.392 26.16 108.84 26.688C109.304 27.2 109.664 27.784 109.92 28.44C110.176 29.08 110.304 29.736 110.304 30.408C110.304 31.112 110.184 31.792 109.944 32.448C109.704 33.104 109.36 33.688 108.912 34.2C108.48 34.712 107.952 35.12 107.328 35.424C106.72 35.728 106.04 35.88 105.288 35.88H100.2V42H98.04ZM100.2 33.96H105.168C105.616 33.96 106.016 33.872 106.368 33.696C106.736 33.504 107.048 33.248 107.304 32.928C107.56 32.592 107.76 32.208 107.904 31.776C108.048 31.344 108.12 30.888 108.12 30.408C108.12 29.912 108.032 29.448 107.856 29.016C107.696 28.584 107.472 28.208 107.184 27.888C106.912 27.568 106.584 27.32 106.2 27.144C105.832 26.968 105.44 26.88 105.024 26.88H100.2V33.96Z" fill="#2E3738"/>
<path d="M126.985 24.96V42H124.825V34.248H115.441V42H113.281V24.96H115.441V32.328H124.825V24.96H126.985Z" fill="#2E3738"/>
<path d="M131.358 42V24.96H133.518V42H131.358Z" fill="#2E3738"/>
<path d="M137.881 42V24.96H140.041V40.08H149.545V42H137.881Z" fill="#2E3738"/>
<path d="M157.368 24.96H159.192L166.152 42H163.848L161.832 37.008H154.68L152.688 42H150.384L157.368 24.96ZM161.352 35.328L158.28 27.456L155.112 35.328H161.352Z" fill="#2E3738"/>
<path d="M170.874 28.992V42H168.714V24.96H170.394L180.954 38.232V24.984H183.114V42H181.29L170.874 28.992Z" fill="#2E3738"/>
<path d="M199.759 26.88H193.879V42H191.719V26.88H185.839V24.96H199.759V26.88Z" fill="#2E3738"/>
<path d="M216.205 24.96V42H214.045V34.248H204.661V42H202.501V24.96H204.661V32.328H214.045V24.96H216.205Z" fill="#2E3738"/>
<path d="M220.578 42V24.96H227.874C228.626 24.96 229.314 25.12 229.938 25.44C230.578 25.744 231.122 26.16 231.57 26.688C232.034 27.2 232.394 27.784 232.65 28.44C232.906 29.08 233.034 29.736 233.034 30.408C233.034 31 232.946 31.576 232.77 32.136C232.61 32.68 232.37 33.176 232.05 33.624C231.746 34.072 231.37 34.456 230.922 34.776C230.49 35.096 230.002 35.328 229.458 35.472L233.586 42H231.138L227.25 35.88H222.738V42H220.578ZM222.738 33.96H227.898C228.346 33.96 228.746 33.864 229.098 33.672C229.466 33.48 229.778 33.224 230.034 32.904C230.29 32.568 230.49 32.184 230.634 31.752C230.778 31.32 230.85 30.872 230.85 30.408C230.85 29.928 230.762 29.48 230.586 29.064C230.426 28.632 230.202 28.256 229.914 27.936C229.642 27.6 229.314 27.344 228.93 27.168C228.562 26.976 228.17 26.88 227.754 26.88H222.738V33.96Z" fill="#2E3738"/>
<path d="M243.552 42.12C242.352 42.12 241.256 41.88 240.264 41.4C239.288 40.904 238.448 40.256 237.744 39.456C237.04 38.64 236.496 37.712 236.112 36.672C235.728 35.632 235.536 34.568 235.536 33.48C235.536 32.344 235.736 31.256 236.136 30.216C236.552 29.176 237.12 28.256 237.84 27.456C238.56 26.656 239.408 26.024 240.384 25.56C241.376 25.08 242.448 24.84 243.6 24.84C244.8 24.84 245.888 25.096 246.864 25.608C247.84 26.104 248.68 26.76 249.384 27.576C250.088 28.392 250.632 29.32 251.016 30.36C251.4 31.384 251.592 32.432 251.592 33.504C251.592 34.64 251.384 35.728 250.968 36.768C250.568 37.808 250.008 38.728 249.288 39.528C248.584 40.312 247.736 40.944 246.744 41.424C245.768 41.888 244.704 42.12 243.552 42.12ZM237.72 33.48C237.72 34.344 237.856 35.184 238.128 36C238.416 36.8 238.816 37.512 239.328 38.136C239.84 38.76 240.456 39.256 241.176 39.624C241.896 39.992 242.696 40.176 243.576 40.176C244.488 40.176 245.304 39.984 246.024 39.6C246.744 39.2 247.352 38.688 247.848 38.064C248.36 37.424 248.744 36.704 249 35.904C249.272 35.104 249.408 34.296 249.408 33.48C249.408 32.616 249.264 31.784 248.976 30.984C248.704 30.168 248.304 29.456 247.776 28.848C247.264 28.224 246.648 27.728 245.928 27.36C245.224 26.992 244.44 26.808 243.576 26.808C242.664 26.808 241.848 27 241.128 27.384C240.408 27.768 239.792 28.272 239.28 28.896C238.784 29.52 238.4 30.232 238.128 31.032C237.856 31.832 237.72 32.648 237.72 33.48Z" fill="#2E3738"/>
<path d="M254.881 42V24.96H261.985C262.737 24.96 263.425 25.12 264.049 25.44C264.689 25.744 265.233 26.16 265.681 26.688C266.145 27.2 266.505 27.784 266.761 28.44C267.017 29.08 267.145 29.736 267.145 30.408C267.145 31.112 267.025 31.792 266.785 32.448C266.545 33.104 266.201 33.688 265.753 34.2C265.321 34.712 264.793 35.12 264.169 35.424C263.561 35.728 262.881 35.88 262.129 35.88H257.041V42H254.881ZM257.041 33.96H262.009C262.457 33.96 262.857 33.872 263.209 33.696C263.577 33.504 263.889 33.248 264.145 32.928C264.401 32.592 264.601 32.208 264.745 31.776C264.889 31.344 264.961 30.888 264.961 30.408C264.961 29.912 264.873 29.448 264.697 29.016C264.537 28.584 264.313 28.208 264.025 27.888C263.753 27.568 263.425 27.32 263.041 27.144C262.673 26.968 262.281 26.88 261.865 26.88H257.041V33.96Z" fill="#2E3738"/>
<path d="M270.348 24.96L275.508 33.84L280.716 24.96H283.068L276.588 35.784V42H274.428V35.736L267.972 24.96H270.348Z" fill="#2E3738"/>
<path d="M97.632 70V52.96H105.312C106.112 52.96 106.848 53.128 107.52 53.464C108.208 53.8 108.8 54.24 109.296 54.784C109.792 55.328 110.176 55.944 110.448 56.632C110.736 57.32 110.88 58.016 110.88 58.72C110.88 59.248 110.816 59.76 110.688 60.256C110.56 60.736 110.376 61.192 110.136 61.624C109.896 62.056 109.6 62.448 109.248 62.8C108.912 63.136 108.528 63.424 108.096 63.664L111.84 70H107.4L104.136 64.504H101.568V70H97.632ZM101.568 61.072H105.168C105.632 61.072 106.032 60.856 106.368 60.424C106.704 59.976 106.872 59.408 106.872 58.72C106.872 58.016 106.68 57.456 106.296 57.04C105.912 56.624 105.496 56.416 105.048 56.416H101.568V61.072Z" fill="#2E3738"/>
<path d="M125.974 66.544V70H113.998V52.96H125.758V56.416H117.934V59.728H124.654V62.92H117.934V66.544H125.974Z" fill="#2E3738"/>
<path d="M138.526 57.952C138.478 57.888 138.31 57.768 138.022 57.592C137.734 57.416 137.374 57.232 136.942 57.04C136.51 56.848 136.038 56.68 135.526 56.536C135.014 56.392 134.502 56.32 133.99 56.32C132.582 56.32 131.878 56.792 131.878 57.736C131.878 58.024 131.95 58.264 132.094 58.456C132.254 58.648 132.478 58.824 132.766 58.984C133.07 59.128 133.446 59.264 133.894 59.392C134.342 59.52 134.862 59.664 135.454 59.824C136.27 60.048 137.006 60.296 137.662 60.568C138.318 60.824 138.87 61.152 139.318 61.552C139.782 61.936 140.134 62.408 140.374 62.968C140.63 63.528 140.758 64.2 140.758 64.984C140.758 65.944 140.574 66.76 140.206 67.432C139.854 68.088 139.382 68.624 138.79 69.04C138.198 69.44 137.518 69.736 136.75 69.928C135.982 70.104 135.19 70.192 134.374 70.192C133.75 70.192 133.11 70.144 132.454 70.048C131.798 69.952 131.158 69.816 130.534 69.64C129.91 69.448 129.302 69.224 128.71 68.968C128.134 68.712 127.598 68.416 127.102 68.08L128.83 64.648C128.894 64.728 129.102 64.88 129.454 65.104C129.806 65.328 130.238 65.552 130.75 65.776C131.278 66 131.862 66.2 132.502 66.376C133.142 66.552 133.79 66.64 134.446 66.64C135.838 66.64 136.534 66.216 136.534 65.368C136.534 65.048 136.43 64.784 136.222 64.576C136.014 64.368 135.726 64.184 135.358 64.024C134.99 63.848 134.55 63.688 134.038 63.544C133.542 63.4 132.998 63.24 132.406 63.064C131.622 62.824 130.942 62.568 130.366 62.296C129.79 62.008 129.31 61.68 128.926 61.312C128.558 60.944 128.278 60.52 128.086 60.04C127.91 59.56 127.822 59 127.822 58.36C127.822 57.464 127.99 56.672 128.326 55.984C128.662 55.296 129.118 54.72 129.694 54.256C130.27 53.776 130.934 53.416 131.686 53.176C132.454 52.936 133.262 52.816 134.11 52.816C134.702 52.816 135.286 52.872 135.862 52.984C136.438 53.096 136.99 53.24 137.518 53.416C138.046 53.592 138.534 53.792 138.982 54.016C139.446 54.24 139.87 54.464 140.254 54.688L138.526 57.952Z" fill="#2E3738"/>
<path d="M143.355 70V52.96H150.627C151.443 52.96 152.187 53.128 152.859 53.464C153.547 53.8 154.131 54.24 154.611 54.784C155.107 55.328 155.491 55.944 155.763 56.632C156.051 57.32 156.195 58.016 156.195 58.72C156.195 59.472 156.059 60.192 155.787 60.88C155.531 61.568 155.163 62.184 154.683 62.728C154.219 63.272 153.651 63.704 152.979 64.024C152.307 64.344 151.563 64.504 150.747 64.504H147.291V70H143.355ZM147.291 61.072H150.507C150.971 61.072 151.371 60.872 151.707 60.472C152.043 60.072 152.211 59.488 152.211 58.72C152.211 58.32 152.155 57.976 152.043 57.688C151.947 57.4 151.811 57.16 151.635 56.968C151.459 56.776 151.259 56.64 151.035 56.56C150.811 56.464 150.587 56.416 150.363 56.416H147.291V61.072Z" fill="#2E3738"/>
<path d="M166.061 70.144C164.797 70.144 163.645 69.896 162.605 69.4C161.565 68.904 160.677 68.256 159.941 67.456C159.205 66.64 158.629 65.712 158.213 64.672C157.813 63.632 157.613 62.56 157.613 61.456C157.613 60.336 157.821 59.256 158.237 58.216C158.669 57.176 159.261 56.264 160.013 55.48C160.781 54.68 161.685 54.048 162.725 53.584C163.765 53.104 164.901 52.864 166.133 52.864C167.397 52.864 168.549 53.112 169.589 53.608C170.629 54.104 171.517 54.76 172.253 55.576C172.989 56.392 173.557 57.32 173.957 58.36C174.357 59.4 174.557 60.456 174.557 61.528C174.557 62.648 174.341 63.728 173.909 64.768C173.493 65.808 172.909 66.728 172.157 67.528C171.405 68.312 170.509 68.944 169.469 69.424C168.429 69.904 167.293 70.144 166.061 70.144ZM161.621 61.504C161.621 62.16 161.717 62.8 161.909 63.424C162.101 64.032 162.381 64.576 162.749 65.056C163.133 65.536 163.605 65.92 164.165 66.208C164.725 66.496 165.365 66.64 166.085 66.64C166.837 66.64 167.493 66.488 168.053 66.184C168.613 65.88 169.076 65.488 169.445 65.008C169.812 64.512 170.085 63.96 170.261 63.352C170.453 62.728 170.549 62.096 170.549 61.456C170.549 60.8 170.453 60.168 170.261 59.56C170.069 58.936 169.781 58.392 169.397 57.928C169.013 57.448 168.541 57.072 167.981 56.8C167.437 56.512 166.805 56.368 166.085 56.368C165.333 56.368 164.676 56.52 164.117 56.824C163.573 57.112 163.109 57.496 162.725 57.976C162.357 58.456 162.077 59.008 161.885 59.632C161.709 60.24 161.621 60.864 161.621 61.504Z" fill="#2E3738"/>
<path d="M181.055 60.256V70H177.119V52.96H180.191L188.135 62.968V52.96H192.071V70H188.903L181.055 60.256Z" fill="#2E3738"/>
<path d="M195.618 70V52.96H201.978C203.386 52.96 204.618 53.184 205.674 53.632C206.73 54.08 207.61 54.688 208.314 55.456C209.034 56.224 209.57 57.128 209.922 58.168C210.29 59.192 210.474 60.288 210.474 61.456C210.474 62.752 210.274 63.928 209.874 64.984C209.474 66.024 208.898 66.92 208.146 67.672C207.41 68.408 206.514 68.984 205.458 69.4C204.418 69.8 203.258 70 201.978 70H195.618ZM206.466 61.456C206.466 60.704 206.362 60.024 206.154 59.416C205.962 58.792 205.674 58.256 205.29 57.808C204.906 57.36 204.434 57.016 203.874 56.776C203.314 56.536 202.682 56.416 201.978 56.416H199.554V66.544H201.978C202.698 66.544 203.338 66.416 203.898 66.16C204.458 65.904 204.922 65.552 205.29 65.104C205.674 64.64 205.962 64.104 206.154 63.496C206.362 62.872 206.466 62.192 206.466 61.456Z" fill="#2E3738"/>
<path d="M223.31 57.952C223.262 57.888 223.094 57.768 222.806 57.592C222.518 57.416 222.158 57.232 221.726 57.04C221.294 56.848 220.822 56.68 220.31 56.536C219.798 56.392 219.286 56.32 218.774 56.32C217.366 56.32 216.661 56.792 216.661 57.736C216.661 58.024 216.734 58.264 216.878 58.456C217.038 58.648 217.261 58.824 217.549 58.984C217.854 59.128 218.23 59.264 218.678 59.392C219.126 59.52 219.646 59.664 220.238 59.824C221.054 60.048 221.79 60.296 222.446 60.568C223.102 60.824 223.654 61.152 224.102 61.552C224.566 61.936 224.918 62.408 225.158 62.968C225.413 63.528 225.542 64.2 225.542 64.984C225.542 65.944 225.357 66.76 224.99 67.432C224.638 68.088 224.166 68.624 223.574 69.04C222.981 69.44 222.301 69.736 221.534 69.928C220.766 70.104 219.974 70.192 219.158 70.192C218.534 70.192 217.894 70.144 217.238 70.048C216.582 69.952 215.942 69.816 215.318 69.64C214.694 69.448 214.086 69.224 213.493 68.968C212.918 68.712 212.382 68.416 211.886 68.08L213.614 64.648C213.678 64.728 213.886 64.88 214.238 65.104C214.59 65.328 215.021 65.552 215.534 65.776C216.062 66 216.646 66.2 217.285 66.376C217.925 66.552 218.574 66.64 219.229 66.64C220.621 66.64 221.318 66.216 221.318 65.368C221.318 65.048 221.214 64.784 221.006 64.576C220.798 64.368 220.51 64.184 220.142 64.024C219.773 63.848 219.334 63.688 218.822 63.544C218.326 63.4 217.782 63.24 217.189 63.064C216.406 62.824 215.726 62.568 215.15 62.296C214.574 62.008 214.094 61.68 213.71 61.312C213.342 60.944 213.062 60.52 212.869 60.04C212.693 59.56 212.605 59 212.605 58.36C212.605 57.464 212.774 56.672 213.11 55.984C213.446 55.296 213.902 54.72 214.478 54.256C215.053 53.776 215.718 53.416 216.47 53.176C217.238 52.936 218.046 52.816 218.894 52.816C219.486 52.816 220.07 52.872 220.646 52.984C221.221 53.096 221.774 53.24 222.302 53.416C222.83 53.592 223.318 53.792 223.766 54.016C224.23 54.24 224.654 54.464 225.038 54.688L223.31 57.952Z" fill="#2E3738"/>
</svg>
