<svg viewBox="0 0 497 497" fill="none" xmlns="http://www.w3.org/2000/svg">
<path opacity="0.2" d="M497 131.506C471.4 101.344 443.035 78.9959 412.364 63.5848C422.822 31.9425 427.432 -3.51012 424.205 -44.2044C383.124 -47.5773 346.967 -42.5301 316.349 -32.3875C300.988 -62.9135 278.956 -90.9882 248.503 -117C217.589 -90.7689 195.533 -62.1363 180.583 -32.3626C149.062 -42.7968 113.731 -47.4315 72.7947 -44.2286C69.8101 -7.78206 73.2072 29.1962 84.6115 63.6289C54.9841 78.5276 26.6426 100.269 0 131.475C26.0848 162.195 54.8872 184.446 84.6115 199.397C74.1532 230.99 69.5428 266.467 72.7456 307.204C108.633 310.141 145.71 306.938 180.602 295.388C195.282 324.603 217.193 353.284 248.448 380C276.231 356.438 300.011 327.927 316.368 295.388C352.28 307.254 388.121 310.068 424.156 307.229C427.528 265.978 422.409 229.772 412.339 199.371C441.894 184.497 470.429 162.585 497 131.5V131.506ZM408.239 -28.2087C409.355 1.63769 405.497 32.1146 398.509 57.3294C376.306 48.0358 351.872 44.2502 334.738 45.2696C334.738 38.7906 336.291 14.0404 322.678 -18.4771C348.108 -25.5624 378.997 -29.2995 408.234 -28.2075L408.239 -28.2087ZM248.526 185.376C258.814 192.898 267.065 197.411 273.907 200.905C268.545 211.388 261.314 224.734 248.526 238.541C237.292 226.384 230.11 214.494 223.17 200.93C229.575 197.605 237.923 193.141 248.526 185.376C238.675 190.204 231.759 193.334 221.35 197.096C216.642 187.05 213.973 179.964 210.43 169.603C212.202 181.007 214.701 190.277 217.346 198.527C203.03 203.137 189.101 206.559 172.844 207.165C173.523 190.01 177.066 176.349 181.506 162.687C189.902 165.404 199.122 167.855 210.455 169.602C200.069 166.035 192.984 163.366 182.962 158.659C186.723 148.273 189.829 141.382 194.682 131.506C187.136 141.819 182.671 149.996 179.153 156.887C165.637 149.971 153.432 142.522 141.518 131.506C153.383 120.538 165.637 113.04 179.128 106.149C182.089 111.9 186.65 120.587 194.682 131.53C189.829 121.605 186.724 114.739 182.962 104.353C192.911 99.694 199.996 97.0006 210.455 93.4337C198.759 95.2536 189.417 97.8257 181.531 100.349C177.212 87.0279 173.548 73.2934 172.869 55.8466C189.102 56.4775 202.86 59.8019 217.371 64.5091C214.653 72.9536 212.202 82.1497 210.455 93.4579C214.022 83.0238 216.716 75.9627 221.399 65.9652C231.736 69.7021 238.7 72.8567 248.551 77.6852C258.403 72.8565 265.318 69.7265 275.728 65.9652C280.411 75.9627 283.08 82.9995 286.647 93.4579C284.876 82.0044 282.352 72.7356 279.707 64.534C294.121 59.875 308.025 56.502 324.234 55.8715C323.579 72.5418 320.012 86.664 315.596 100.374C307.151 97.6566 297.955 95.2057 286.647 93.4585C297.081 97.0255 304.118 99.6947 314.164 104.402C310.378 114.836 307.248 121.728 302.444 131.579C309.287 122.213 314.067 113.89 317.998 106.222C329.621 112.167 342.408 119.35 355.584 131.603C342.991 143.251 330.858 150.385 317.974 156.985C314.746 150.676 310.233 142.256 302.42 131.603C307.248 141.479 310.378 148.395 314.115 158.781C304.118 163.464 297.009 166.157 286.623 169.7V169.676V169.7C283.08 180.061 280.387 187.147 275.68 197.193C265.294 193.334 258.33 190.18 248.527 185.376H248.526ZM176.947 161.159C170.153 175.403 165.106 191.442 163.214 207.215C143.122 206.827 121.332 200.494 102.988 191.758C111.189 168.633 123.128 150.167 134.63 138.253C147.223 148.202 162.316 155.967 176.948 161.159H176.947ZM102.989 71.1857C121.115 62.5716 143.099 56.0926 163.191 55.7286C163.797 60.7515 164.695 65.5801 165.787 70.4334C168.116 80.3824 172.144 91.7869 176.925 101.833C162.317 107.026 147.273 114.766 134.631 124.691C120.727 110.229 109.735 90.2097 102.989 71.1857H102.989ZM223.176 62.0374C230.067 48.5457 237.517 36.3406 248.557 24.4261C259.864 36.6561 267.241 48.9582 273.914 62.0374C267.386 65.386 259.088 69.8508 248.533 77.5914C239.263 70.8217 230.989 66.041 223.176 62.0374ZM286.63 169.578C298.058 167.807 307.352 165.283 315.553 162.638C319.12 173.654 323.488 188.262 324.192 207.165C307.716 206.51 294.273 203.234 279.714 198.503C282.431 190.082 284.882 180.911 286.629 169.579L286.63 169.578ZM320.14 161.134C334.844 155.917 349.815 148.176 362.409 138.251C373.935 150.287 385.971 168.923 394.075 191.781C372.091 202.239 350.544 206.947 333.874 207.238C331.981 191.247 326.74 174.989 320.14 161.134H320.14ZM320.115 101.829C326.788 87.8038 331.932 71.7398 333.849 55.7733C354.183 56.2101 375.876 62.5679 394.075 71.2304C386.091 93.7486 374.056 112.676 362.433 124.736C349.888 114.811 334.819 107.022 320.115 101.829H320.115ZM324.289 46.1405C308.419 48.0332 292.235 53.1774 278.161 59.8987C272.968 45.2907 265.228 30.2467 255.303 17.6042C269.765 3.72427 289.444 -7.17081 308.832 -14.0623C317.519 4.16096 323.925 26.6065 324.289 46.1399V46.1405ZM248.536 -94.3793C267.899 -76.3989 287.724 -52.4973 302.113 -27.0173C283.234 -19.2766 262.148 -5.83338 248.511 9.55043C236.888 -4.37793 213.449 -19.3983 194.934 -26.9688C209.469 -52.7141 228.784 -75.9361 248.536 -94.3805V-94.3793ZM188.261 -14.0592C207.649 -7.16769 227.449 3.77583 241.766 17.5831C231.865 30.1765 224.052 45.2696 218.884 59.9018C204.713 53.1562 188.674 48.0606 172.829 46.1678C173.217 25.7853 179.574 4.21315 188.261 -14.0586V-14.0592ZM88.8223 -28.2298C118.862 -29.249 148.368 -25.7305 174.359 -18.4995C166.401 0.476067 161.135 25.2753 162.3 45.2721C142.912 44.1316 118.137 49.1302 98.5537 57.3319C90.692 29.0385 87.9017 -1.00175 88.8235 -28.2249L88.8223 -28.2298ZM22.6786 131.485C41.3626 111.369 65.1663 91.9323 90.0398 77.907C97.7804 96.8099 111.393 117.969 126.607 131.509C110.981 145.729 97.9015 166.014 90.064 185.087C64.9738 170.891 41.0731 151.382 22.678 131.485H22.6786ZM88.8223 291.199C87.7546 263.294 90.8605 233.351 98.5525 205.661C120.609 214.906 144.947 218.716 162.323 217.721C160.964 236.6 166.254 262.054 174.383 281.468C146.017 289.354 115.128 292.169 88.8272 291.198L88.8223 291.199ZM172.781 216.824C188.578 214.931 204.763 209.811 218.885 203.066C224.126 217.868 231.891 232.815 241.743 245.36C227.038 259.458 207.335 270.232 188.214 277.027C179.552 258.804 173.145 236.941 172.781 216.825V216.824ZM248.535 357.369C228.807 339.146 209.202 315.245 194.958 290.007C213.957 282.218 235.141 268.532 248.559 253.439C262.536 268.969 283.452 282.315 302.136 289.958C287.626 315.631 267.583 339.751 248.535 357.37V357.369ZM308.809 277.049C286.704 269.187 267.777 257.443 255.305 245.406C265.205 232.813 273.018 217.696 278.186 203.063C292.382 209.833 308.445 214.905 324.266 216.797C323.853 236.913 317.593 258.558 308.809 277.048V277.049ZM408.223 291.195C381.799 292.19 350.618 289.23 322.686 281.465C332.028 259.189 335.741 234.948 334.746 217.718C342.171 217.718 355.59 218.592 378.447 212.452C386.868 210.074 393.929 207.551 398.491 205.658C405.648 231.33 409.337 261.468 408.221 291.196L408.223 291.195ZM407.034 185.058C399.706 167.175 386.069 145.312 370.467 131.456C373.306 129.175 394.344 108.793 407.01 77.8784C432.294 92.1466 455.176 110.976 474.396 131.456C455.954 151.354 432.247 170.839 407.035 185.058H407.034Z" fill="#FDEFB0"/>
</svg>
