<?xml version="1.0" standalone="no"?>
<!DOCTYPE svg PUBLIC "-//W3C//DTD SVG 20010904//EN"
 "http://www.w3.org/TR/2001/REC-SVG-20010904/DTD/svg10.dtd">
<svg version="1.0" xmlns="http://www.w3.org/2000/svg"
 width="260.000000pt" height="260.000000pt" viewBox="0 0 260.000000 260.000000"
 preserveAspectRatio="xMidYMid meet">
<metadata>
Created by potrace 1.11, written by Peter Selinger 2001-2013
</metadata>
<g transform="translate(0.000000,260.000000) scale(0.100000,-0.100000)"
fill="#000000" stroke="none">
<path d="M1254 2539 c-105 -93 -250 -277 -285 -362 -14 -32 -3 -33 -154 3 -64
15 -136 22 -252 26 l-162 5 -7 -27 c-7 -28 1 -280 11 -329 3 -16 15 -70 26
-118 12 -49 19 -90 17 -91 -1 -2 -30 -18 -63 -36 -109 -61 -222 -154 -329
-270 l-38 -42 38 -41 c47 -49 128 -125 169 -159 49 -40 178 -125 203 -132 27
-9 27 -9 3 -104 -11 -43 -22 -93 -26 -112 -10 -56 -18 -306 -11 -334 l6 -26
153 4 c168 5 177 6 304 36 84 20 89 20 100 3 7 -10 42 -62 78 -116 36 -55 71
-105 78 -112 119 -128 181 -183 197 -175 62 33 302 329 325 399 8 26 8 26 103
1 42 -11 93 -22 112 -25 65 -10 308 -18 336 -11 l27 7 -6 157 c-4 101 -14 191
-27 252 -11 52 -23 107 -26 121 -5 22 -2 28 16 34 52 16 213 137 310 232 l105
103 -90 90 c-93 92 -204 179 -291 226 -27 15 -50 28 -52 30 -2 1 9 55 24 121
23 101 27 141 28 278 l1 160 -136 1 c-130 1 -272 -17 -369 -46 -51 -15 -55
-14 -74 28 -35 72 -131 198 -226 296 l-96 99 -50 -44z m126 -156 c64 -70 190
-243 190 -262 0 -4 -21 -17 -47 -30 -64 -31 -143 -84 -187 -125 l-36 -35 -36
35 c-44 41 -123 94 -187 125 -26 13 -47 26 -47 30 0 33 244 339 270 339 4 0
40 -35 80 -77z m-710 -268 c41 -3 113 -13 158 -22 76 -15 83 -18 79 -37 -3
-12 -14 -57 -26 -101 -12 -44 -23 -109 -24 -145 l-2 -65 -40 -1 c-76 -2 -161
-16 -225 -39 -61 -21 -67 -19 -75 23 -8 44 -13 69 -19 100 -16 78 -24 291 -12
295 11 4 77 1 186 -8z m1449 -4 c12 -18 -1 -224 -19 -306 -5 -22 -12 -56 -15
-75 -3 -19 -8 -36 -10 -39 -3 -2 -37 5 -77 17 -81 23 -119 31 -193 37 -27 2
-52 4 -55 4 -3 1 -6 29 -7 64 -2 35 -12 99 -24 142 -12 44 -23 89 -26 101 -4
19 3 22 79 38 46 9 124 19 174 22 49 3 90 7 91 8 7 6 77 -5 82 -13z m-1027
-107 c58 -29 127 -75 152 -100 15 -14 14 -19 -10 -57 -14 -23 -39 -71 -56
-107 -17 -36 -31 -66 -32 -67 -1 -1 -29 8 -61 21 -33 13 -86 30 -119 37 l-58
13 6 50 c9 69 32 155 56 210 22 52 20 52 122 0z m538 1 c38 -89 73 -264 54
-266 -48 -4 -153 -35 -215 -63 -13 -6 -21 5 -38 47 -12 30 -38 78 -57 107 -19
28 -34 55 -34 58 0 14 108 86 184 123 44 22 81 39 83 39 2 0 12 -20 23 -45z
m-226 -298 l27 -47 -32 -18 c-17 -9 -41 -25 -53 -35 -19 -15 -19 -16 -2 -10
11 4 36 15 55 24 l36 18 23 -50 c29 -60 39 -58 19 3 -9 23 -12 47 -8 51 11 11
104 34 170 42 l54 7 -7 -54 c-13 -96 -38 -180 -52 -174 -33 13 -96 27 -101 23
-2 -3 6 -8 19 -12 13 -4 37 -13 55 -21 35 -16 35 -23 -2 -94 -24 -46 -11 -36
25 20 l32 50 37 -22 c65 -39 116 -75 134 -96 18 -20 18 -21 -1 -31 -11 -6 -27
-18 -35 -26 -8 -8 -41 -30 -73 -49 -63 -38 -73 -37 -94 14 -7 17 -16 30 -21
30 -4 0 0 -20 11 -45 l19 -45 -33 -14 c-18 -7 -43 -17 -55 -21 -47 -15 -10
-16 40 -1 29 9 54 16 55 16 2 0 22 -79 30 -115 2 -11 7 -42 10 -69 l6 -49 -53
7 c-30 4 -82 14 -117 23 -49 12 -62 19 -58 32 31 107 32 145 1 56 -21 -62 -32
-67 -96 -36 -50 25 -41 7 11 -19 21 -11 41 -23 44 -28 5 -9 -79 -146 -108
-175 -17 -17 -19 -15 -55 30 -21 27 -50 69 -64 95 l-28 47 38 24 c21 13 47 29
58 35 34 20 10 13 -49 -13 l-56 -25 -13 28 c-8 15 -17 40 -21 56 -4 15 -9 26
-12 23 -3 -3 1 -30 9 -60 l15 -55 -67 -16 c-36 -9 -88 -19 -114 -22 l-49 -6 6
49 c8 63 26 143 38 165 7 14 13 15 34 8 46 -18 60 -9 17 11 l-43 20 25 54 c13
30 22 55 20 55 -3 0 -17 -22 -32 -48 -19 -32 -33 -47 -43 -44 -25 8 -169 105
-174 117 -4 11 64 65 142 111 l42 25 18 -31 c21 -39 60 -88 43 -55 -6 11 -17
37 -25 57 l-14 37 31 14 c18 8 42 18 55 22 13 4 22 8 20 10 -4 4 -57 -7 -94
-19 -18 -5 -22 0 -34 46 -16 62 -17 68 -26 131 l-7 47 49 -5 c58 -5 142 -24
166 -36 16 -8 16 -13 2 -60 -20 -67 -11 -74 12 -9 21 58 28 60 102 25 28 -13
52 -23 52 -21 0 6 -101 66 -111 66 -5 0 -9 3 -9 6 0 19 100 169 124 186 11 7
69 -64 110 -135z m-543 -29 c1 -30 11 -67 38 -145 l28 -82 -52 -21 c-29 -12
-76 -37 -105 -56 -28 -19 -55 -34 -58 -34 -27 1 -170 256 -153 273 12 12 142
56 187 63 21 3 40 7 41 8 1 1 18 3 38 4 23 2 35 -2 36 -10z m996 -4 c73 -15
170 -48 186 -63 17 -16 -127 -269 -155 -271 -3 0 -30 15 -58 34 -29 19 -76 44
-106 56 l-52 22 23 61 c12 34 28 88 35 120 15 66 13 65 127 41z m-1348 -151
c29 -61 81 -138 125 -187 l35 -38 -37 -40 c-44 -47 -102 -133 -127 -188 -10
-22 -21 -40 -25 -40 -27 0 -196 127 -290 217 l-55 53 60 58 c33 31 81 73 105
93 49 39 169 119 180 119 3 0 16 -21 29 -47z m1708 -12 c48 -32 124 -93 168
-134 l80 -76 -55 -53 c-30 -30 -77 -72 -105 -95 -52 -42 -173 -123 -185 -123
-3 0 -16 21 -29 47 -30 63 -82 139 -126 186 l-35 38 31 32 c37 39 120 162 138
205 8 18 17 32 22 32 4 0 47 -27 96 -59z m-1453 -281 c24 -17 71 -42 103 -56
32 -14 59 -27 61 -28 1 -2 -7 -23 -18 -49 -11 -25 -27 -78 -36 -117 l-17 -72
-51 6 c-67 9 -154 32 -210 56 -44 18 -45 20 -35 47 31 81 133 243 154 243 2 0
24 -14 49 -30z m1174 -29 c53 -74 114 -203 103 -214 -24 -24 -281 -90 -296
-76 -2 3 -7 20 -10 39 -3 19 -19 72 -34 117 l-28 81 41 16 c23 9 70 34 106 56
36 21 68 39 71 40 3 0 25 -26 47 -59z m-694 -460 c9 -10 16 -22 16 -27 -1 -21
-160 -122 -246 -154 -21 -8 -25 -5 -44 38 -24 53 -60 193 -60 233 0 25 5 28
73 44 39 9 92 24 117 34 l45 18 41 -84 c23 -46 49 -92 58 -102z m286 159 c25
-10 71 -23 104 -30 l58 -12 -6 -60 c-7 -61 -56 -222 -73 -239 -10 -10 -135 47
-196 91 -87 62 -84 50 -39 127 23 37 48 87 58 111 13 33 20 42 33 36 9 -3 36
-14 61 -24z m-864 -26 c36 -8 93 -16 125 -17 45 -1 59 -6 60 -17 4 -69 13
-127 31 -195 11 -44 22 -89 25 -101 4 -19 -3 -22 -79 -37 -140 -27 -329 -40
-345 -23 -20 20 9 319 41 413 7 21 9 21 42 7 19 -8 64 -21 100 -30z m1428 -50
c14 -65 24 -165 30 -278 1 -27 -3 -53 -10 -60 -28 -28 -424 18 -424 49 0 6 9
38 20 71 11 32 20 59 19 59 0 0 2 20 6 45 3 25 8 65 10 90 2 25 4 47 4 50 1 3
29 6 64 7 62 3 202 33 235 52 22 12 28 1 46 -85z m-669 -259 c28 -18 72 -43
98 -56 26 -13 47 -27 47 -32 0 -25 -125 -190 -213 -282 l-58 -60 -75 80 c-67
70 -194 244 -194 264 0 4 21 17 47 30 59 29 136 80 187 125 l39 35 36 -35 c20
-19 59 -50 86 -69z"/>
<path d="M1050 1116 c0 -2 9 -6 20 -9 11 -3 18 -1 14 4 -5 9 -34 13 -34 5z"/>
</g>
</svg>
