<svg width="20" height="21" viewBox="0 0 20 21" fill="none" xmlns="http://www.w3.org/2000/svg">
<path d="M10 20.8C4.47059 20.8 0 16.3294 0 10.8C0 5.27058 4.47059 0.799988 10 0.799988C15.5294 0.799988 20 5.27058 20 10.8C20 16.3294 15.5294 20.8 10 20.8ZM10 1.97646C5.17647 1.97646 1.17647 5.97646 1.17647 10.8C1.17647 15.6235 5.17647 19.6235 10 19.6235C14.8235 19.6235 18.8235 15.6235 18.8235 10.8C18.8235 5.97646 14.8235 1.97646 10 1.97646Z" fill="#2E3738"/>
<path d="M9.29978 14.3717C9.14353 14.4048 8.98177 14.3699 8.82369 14.2118C8.58839 13.9765 8.58839 13.6236 8.82369 13.3883L11.059 11.153C11.1766 11.0354 11.1766 10.8001 11.059 10.5648L8.82369 8.32947C8.58839 8.09417 8.58839 7.74123 8.82369 7.50594C9.05898 7.27064 9.41192 7.27064 9.64722 7.50594L11.8825 9.74123C12.4707 10.3295 12.4707 11.3883 11.8825 11.9765C11.3163 12.5427 10.7557 13.1181 10.1821 13.6769C9.95419 13.8993 9.63616 14.2982 9.29978 14.3718V14.3717Z" fill="#2E3738"/>
</svg>
