<svg width="497" height="497" viewBox="0 0 497 497" fill="none" xmlns="http://www.w3.org/2000/svg">
<path opacity="0.2" d="M497 248.506C471.4 218.344 443.035 195.996 412.364 180.585C422.822 148.943 427.432 113.49 424.205 72.7956C383.124 69.4227 346.967 74.4699 316.349 84.6125C300.989 54.0865 278.956 26.0118 248.503 0C217.589 26.2311 195.533 54.8637 180.583 84.6374C149.062 74.2032 113.731 69.5685 72.7947 72.7714C69.8101 109.218 73.2072 146.196 84.6115 180.629C54.9841 195.528 26.6426 217.269 0 248.475C26.0848 279.195 54.8872 301.446 84.6115 316.397C74.1532 347.99 69.5428 383.467 72.7456 424.204C108.633 427.141 145.71 423.938 180.602 412.388C195.282 441.603 217.193 470.284 248.448 497C276.231 473.438 300.011 444.927 316.368 412.388C352.28 424.254 388.121 427.068 424.156 424.229C427.528 382.978 422.409 346.772 412.339 316.371C441.894 301.497 470.429 279.585 497 248.5V248.506ZM408.239 88.7913C409.355 118.638 405.497 149.115 398.509 174.329C376.306 165.036 351.872 161.25 334.738 162.27C334.738 155.791 336.291 131.04 322.678 98.5229C348.108 91.4376 378.997 87.7005 408.234 88.7925L408.239 88.7913ZM248.526 302.376C258.814 309.898 267.065 314.411 273.907 317.905C268.545 328.388 261.314 341.734 248.526 355.541C237.292 343.384 230.11 331.494 223.17 317.93C229.575 314.605 237.923 310.141 248.526 302.376C238.675 307.204 231.759 310.334 221.35 314.096C216.642 304.05 213.973 296.964 210.43 286.603C212.202 298.007 214.701 307.277 217.346 315.527C203.03 320.137 189.101 323.559 172.844 324.165C173.523 307.01 177.066 293.349 181.506 279.687C189.902 282.404 199.122 284.855 210.455 286.602C200.069 283.035 192.984 280.366 182.962 275.659C186.723 265.273 189.829 258.382 194.682 248.506C187.136 258.819 182.671 266.996 179.153 273.887C165.637 266.971 153.432 259.522 141.518 248.506C153.383 237.538 165.637 230.04 179.128 223.149C182.089 228.9 186.65 237.587 194.682 248.53C189.829 238.605 186.724 231.739 182.962 221.353C192.911 216.694 199.996 214.001 210.455 210.434C198.759 212.254 189.417 214.826 181.531 217.349C177.212 204.028 173.548 190.293 172.869 172.847C189.102 173.477 202.86 176.802 217.371 181.509C214.653 189.954 212.202 199.15 210.455 210.458C214.022 200.024 216.716 192.963 221.399 182.965C231.736 186.702 238.7 189.857 248.551 194.685C258.403 189.856 265.318 186.727 275.728 182.965C280.411 192.963 283.08 200 286.647 210.458C284.876 199.004 282.352 189.736 279.707 181.534C294.121 176.875 308.025 173.502 324.234 172.871C323.579 189.542 320.012 203.664 315.596 217.374C307.151 214.657 297.955 212.206 286.647 210.459C297.081 214.026 304.118 216.695 314.164 221.402C310.378 231.836 307.248 238.728 302.444 248.579C309.287 239.213 314.067 230.89 317.998 223.222C329.621 229.167 342.408 236.35 355.584 248.603C342.991 260.251 330.858 267.385 317.974 273.985C314.746 267.676 310.233 259.256 302.42 248.603C307.248 258.479 310.378 265.395 314.115 275.781C304.118 280.464 297.009 283.157 286.623 286.7V286.676V286.7C283.08 297.061 280.387 304.147 275.68 314.193C265.294 310.334 258.33 307.18 248.527 302.376H248.526ZM176.947 278.159C170.153 292.403 165.106 308.442 163.214 324.215C143.122 323.827 121.332 317.494 102.988 308.758C111.189 285.633 123.128 267.167 134.63 255.253C147.223 265.202 162.316 272.967 176.948 278.159H176.947ZM102.989 188.186C121.115 179.572 143.099 173.093 163.191 172.729C163.797 177.751 164.695 182.58 165.787 187.433C168.116 197.382 172.144 208.787 176.925 218.833C162.317 224.026 147.273 231.766 134.631 241.691C120.727 227.229 109.735 207.21 102.989 188.186H102.989ZM223.176 179.037C230.067 165.546 237.517 153.341 248.557 141.426C259.864 153.656 267.241 165.958 273.914 179.037C267.386 182.386 259.088 186.851 248.533 194.591C239.263 187.822 230.989 183.041 223.176 179.037ZM286.63 286.578C298.058 284.807 307.352 282.283 315.553 279.638C319.12 290.654 323.488 305.262 324.192 324.165C307.716 323.51 294.273 320.234 279.714 315.503C282.431 307.082 284.882 297.911 286.629 286.579L286.63 286.578ZM320.14 278.134C334.844 272.917 349.815 265.176 362.409 255.251C373.935 267.287 385.971 285.923 394.075 308.781C372.091 319.239 350.544 323.947 333.874 324.238C331.981 308.247 326.74 291.989 320.14 278.134H320.14ZM320.115 218.829C326.788 204.804 331.932 188.74 333.849 172.773C354.183 173.21 375.876 179.568 394.075 188.23C386.091 210.749 374.056 229.676 362.433 241.736C349.888 231.811 334.819 224.022 320.115 218.829H320.115ZM324.289 163.14C308.42 165.033 292.235 170.177 278.161 176.899C272.968 162.291 265.228 147.247 255.303 134.604C269.765 120.724 289.444 109.829 308.832 102.938C317.519 121.161 323.925 143.606 324.289 163.14V163.14ZM248.536 22.6207C267.899 40.6011 287.724 64.5027 302.113 89.9827C283.234 97.7234 262.148 111.167 248.511 126.55C236.888 112.622 213.449 97.6017 194.934 90.0312C209.469 64.2859 228.784 41.0639 248.536 22.6195V22.6207ZM188.261 102.941C207.649 109.832 227.449 120.776 241.766 134.583C231.865 147.176 224.052 162.27 218.884 176.902C204.713 170.156 188.674 165.061 172.829 163.168C173.217 142.785 179.574 121.213 188.261 102.941V102.941ZM88.8223 88.7702C118.862 87.751 148.368 91.2695 174.359 98.5005C166.401 117.476 161.135 142.275 162.3 162.272C142.912 161.132 118.137 166.13 98.5537 174.332C90.692 146.038 87.9017 115.998 88.8235 88.7751L88.8223 88.7702ZM22.6786 248.485C41.3626 228.369 65.1663 208.932 90.0398 194.907C97.7804 213.81 111.393 234.969 126.607 248.509C110.981 262.729 97.9015 283.014 90.064 302.087C64.9738 287.891 41.0731 268.382 22.678 248.485H22.6786ZM88.8223 408.199C87.7546 380.294 90.8605 350.351 98.5525 322.661C120.609 331.906 144.947 335.716 162.323 334.721C160.964 353.6 166.254 379.054 174.383 398.468C146.017 406.354 115.128 409.169 88.8272 408.198L88.8223 408.199ZM172.781 333.824C188.578 331.931 204.763 326.811 218.885 320.066C224.126 334.868 231.891 349.815 241.743 362.36C227.038 376.458 207.335 387.232 188.214 394.027C179.552 375.804 173.145 353.941 172.781 333.825V333.824ZM248.535 474.369C228.807 456.146 209.202 432.245 194.958 407.007C213.957 399.218 235.141 385.532 248.559 370.439C262.536 385.969 283.452 399.315 302.136 406.958C287.626 432.631 267.583 456.751 248.535 474.37V474.369ZM308.809 394.049C286.704 386.187 267.777 374.443 255.305 362.406C265.205 349.813 273.018 334.696 278.186 320.063C292.382 326.833 308.445 331.905 324.266 333.797C323.853 353.913 317.593 375.558 308.809 394.048V394.049ZM408.223 408.195C381.799 409.19 350.618 406.23 322.686 398.465C332.028 376.189 335.741 351.948 334.746 334.718C342.171 334.718 355.59 335.592 378.447 329.452C386.868 327.074 393.929 324.551 398.491 322.658C405.648 348.33 409.337 378.468 408.221 408.196L408.223 408.195ZM407.034 302.058C399.706 284.175 386.069 262.312 370.467 248.456C373.306 246.175 394.344 225.793 407.01 194.878C432.294 209.147 455.176 227.976 474.396 248.456C455.954 268.354 432.247 287.839 407.035 302.058H407.034Z" fill="#FDEFB0"/>
</svg>
